<svg width="64" height="64" viewBox="0 0 64 64" fill="none" xmlns="http://www.w3.org/2000/svg">
<path d="M61.5 30.6698C43.13 11.1298 20.77 11.2298 2.49997 30.6698C2.17384 31.036 1.99365 31.5094 1.99365 31.9998C1.99365 32.4902 2.17384 32.9635 2.49997 33.3298C20.87 52.8698 43.23 52.7698 61.5 33.3298C61.8261 32.9635 62.0063 32.4902 62.0063 31.9998C62.0063 31.5094 61.8261 31.036 61.5 30.6698ZM23.42 31.9998C23.4226 29.725 24.3274 27.5442 25.9359 25.9357C27.5444 24.3272 29.7252 23.4224 32 23.4198C32.5304 23.4198 33.0391 23.6305 33.4142 24.0056C33.7893 24.3806 34 24.8893 34 25.4198C34 26.6345 34.4825 27.7994 35.3414 28.6583C36.2003 29.5172 37.3653 29.9998 38.58 29.9998C39.0648 29.9977 39.5339 30.1718 39.9 30.4898L40 30.5798L40.09 30.6798C40.4079 31.0458 40.582 31.5149 40.58 31.9998C40.13 43.3698 23.87 43.3698 23.42 31.9998Z" fill="#48bdd4" id="id_101"></path>
</svg>